<mxfile host="app.diagrams.net" agent="Mozilla/5.0 (X11; Linux x86_64; rv:144.0) Gecko/20100101 Firefox/144.0" version="28.2.8">
  <diagram name="Page-1" id="NajKubpLpkFBOwyw2uhn">
    <mxGraphModel dx="593" dy="2023" grid="1" gridSize="10" guides="1" tooltips="1" connect="1" arrows="1" fold="1" page="1" pageScale="1" pageWidth="850" pageHeight="1100" math="0" shadow="0">
      <root>
        <mxCell id="0" />
        <mxCell id="1" parent="0" />
        <mxCell id="GX2V42UjHOd-Bbd-Waxc-43" style="edgeStyle=orthogonalEdgeStyle;rounded=0;orthogonalLoop=1;jettySize=auto;html=1;entryX=0;entryY=0.5;entryDx=0;entryDy=0;" parent="1" source="GX2V42UjHOd-Bbd-Waxc-1" target="GX2V42UjHOd-Bbd-Waxc-16" edge="1">
          <mxGeometry relative="1" as="geometry" />
        </mxCell>
        <mxCell id="GX2V42UjHOd-Bbd-Waxc-1" value="GameStart" style="ellipse;whiteSpace=wrap;html=1;aspect=fixed;" parent="1" vertex="1">
          <mxGeometry x="60" y="-460" width="80" height="80" as="geometry" />
        </mxCell>
        <mxCell id="GX2V42UjHOd-Bbd-Waxc-12" style="edgeStyle=orthogonalEdgeStyle;rounded=0;orthogonalLoop=1;jettySize=auto;html=1;entryX=0.5;entryY=0;entryDx=0;entryDy=0;exitX=0.5;exitY=0;exitDx=0;exitDy=0;" parent="1" source="GX2V42UjHOd-Bbd-Waxc-5" target="GX2V42UjHOd-Bbd-Waxc-7" edge="1">
          <mxGeometry relative="1" as="geometry">
            <Array as="points">
              <mxPoint x="720" y="-500" />
              <mxPoint x="560" y="-500" />
            </Array>
          </mxGeometry>
        </mxCell>
        <mxCell id="GX2V42UjHOd-Bbd-Waxc-13" value="i=n%I" style="edgeLabel;html=1;align=center;verticalAlign=middle;resizable=0;points=[];" parent="GX2V42UjHOd-Bbd-Waxc-12" vertex="1" connectable="0">
          <mxGeometry x="0.0828" relative="1" as="geometry">
            <mxPoint x="-1" as="offset" />
          </mxGeometry>
        </mxCell>
        <mxCell id="GX2V42UjHOd-Bbd-Waxc-15" value="yes" style="edgeLabel;html=1;align=center;verticalAlign=middle;resizable=0;points=[];" parent="GX2V42UjHOd-Bbd-Waxc-12" vertex="1" connectable="0">
          <mxGeometry x="-0.9189" y="-2" relative="1" as="geometry">
            <mxPoint y="-10" as="offset" />
          </mxGeometry>
        </mxCell>
        <mxCell id="GX2V42UjHOd-Bbd-Waxc-31" style="edgeStyle=orthogonalEdgeStyle;rounded=0;orthogonalLoop=1;jettySize=auto;html=1;entryX=0.5;entryY=0;entryDx=0;entryDy=0;" parent="1" source="GX2V42UjHOd-Bbd-Waxc-5" target="GX2V42UjHOd-Bbd-Waxc-25" edge="1">
          <mxGeometry relative="1" as="geometry" />
        </mxCell>
        <mxCell id="GX2V42UjHOd-Bbd-Waxc-42" value="no" style="edgeLabel;html=1;align=center;verticalAlign=middle;resizable=0;points=[];" parent="GX2V42UjHOd-Bbd-Waxc-31" vertex="1" connectable="0">
          <mxGeometry x="-0.4996" relative="1" as="geometry">
            <mxPoint as="offset" />
          </mxGeometry>
        </mxCell>
        <mxCell id="GX2V42UjHOd-Bbd-Waxc-5" value="Tiles left?" style="rhombus;whiteSpace=wrap;html=1;" parent="1" vertex="1">
          <mxGeometry x="680" y="-460" width="80" height="80" as="geometry" />
        </mxCell>
        <mxCell id="GX2V42UjHOd-Bbd-Waxc-8" value="" style="edgeStyle=orthogonalEdgeStyle;rounded=0;orthogonalLoop=1;jettySize=auto;html=1;" parent="1" source="GX2V42UjHOd-Bbd-Waxc-7" target="GX2V42UjHOd-Bbd-Waxc-5" edge="1">
          <mxGeometry relative="1" as="geometry">
            <mxPoint x="660" y="-420" as="targetPoint" />
          </mxGeometry>
        </mxCell>
        <mxCell id="GX2V42UjHOd-Bbd-Waxc-7" value="&lt;div&gt;Player i Turn&lt;/div&gt;" style="rounded=0;whiteSpace=wrap;html=1;" parent="1" vertex="1">
          <mxGeometry x="500" y="-450" width="120" height="60" as="geometry" />
        </mxCell>
        <mxCell id="GX2V42UjHOd-Bbd-Waxc-18" value="" style="edgeStyle=orthogonalEdgeStyle;rounded=0;orthogonalLoop=1;jettySize=auto;html=1;" parent="1" source="GX2V42UjHOd-Bbd-Waxc-16" target="GX2V42UjHOd-Bbd-Waxc-7" edge="1">
          <mxGeometry relative="1" as="geometry" />
        </mxCell>
        <mxCell id="GX2V42UjHOd-Bbd-Waxc-19" value="n=0" style="edgeLabel;html=1;align=center;verticalAlign=middle;resizable=0;points=[];" parent="GX2V42UjHOd-Bbd-Waxc-18" vertex="1" connectable="0">
          <mxGeometry x="-0.2762" y="2" relative="1" as="geometry">
            <mxPoint as="offset" />
          </mxGeometry>
        </mxCell>
        <mxCell id="GX2V42UjHOd-Bbd-Waxc-16" value="Round Setup" style="rounded=0;whiteSpace=wrap;html=1;" parent="1" vertex="1">
          <mxGeometry x="340" y="-450" width="120" height="60" as="geometry" />
        </mxCell>
        <mxCell id="GX2V42UjHOd-Bbd-Waxc-22" value="Vertical Container" style="swimlane;whiteSpace=wrap;html=1;" parent="1" vertex="1">
          <mxGeometry x="80" y="-630" width="200" height="120" as="geometry" />
        </mxCell>
        <mxCell id="GX2V42UjHOd-Bbd-Waxc-23" value="&lt;ul&gt;&lt;li align=&quot;left&quot;&gt;m -&amp;gt; Round&lt;/li&gt;&lt;li align=&quot;left&quot;&gt;n -&amp;gt; Turn&lt;/li&gt;&lt;li align=&quot;left&quot;&gt;i -&amp;gt; Player turn&lt;/li&gt;&lt;/ul&gt;" style="text;html=1;whiteSpace=wrap;strokeColor=none;fillColor=none;align=left;verticalAlign=middle;rounded=0;" parent="GX2V42UjHOd-Bbd-Waxc-22" vertex="1">
          <mxGeometry x="20" y="30" width="160" height="60" as="geometry" />
        </mxCell>
        <mxCell id="GX2V42UjHOd-Bbd-Waxc-36" value="" style="edgeStyle=orthogonalEdgeStyle;rounded=0;orthogonalLoop=1;jettySize=auto;html=1;" parent="1" source="GX2V42UjHOd-Bbd-Waxc-25" target="GX2V42UjHOd-Bbd-Waxc-35" edge="1">
          <mxGeometry relative="1" as="geometry" />
        </mxCell>
        <mxCell id="GX2V42UjHOd-Bbd-Waxc-25" value="Consolidate" style="rounded=0;whiteSpace=wrap;html=1;" parent="1" vertex="1">
          <mxGeometry x="660" y="-290" width="120" height="60" as="geometry" />
        </mxCell>
        <mxCell id="GX2V42UjHOd-Bbd-Waxc-37" style="edgeStyle=orthogonalEdgeStyle;rounded=0;orthogonalLoop=1;jettySize=auto;html=1;entryX=0.5;entryY=1;entryDx=0;entryDy=0;" parent="1" source="GX2V42UjHOd-Bbd-Waxc-29" target="GX2V42UjHOd-Bbd-Waxc-16" edge="1">
          <mxGeometry relative="1" as="geometry" />
        </mxCell>
        <mxCell id="GX2V42UjHOd-Bbd-Waxc-38" value="no" style="edgeLabel;html=1;align=center;verticalAlign=middle;resizable=0;points=[];" parent="GX2V42UjHOd-Bbd-Waxc-37" vertex="1" connectable="0">
          <mxGeometry x="-0.0508" relative="1" as="geometry">
            <mxPoint as="offset" />
          </mxGeometry>
        </mxCell>
        <mxCell id="GX2V42UjHOd-Bbd-Waxc-40" style="edgeStyle=orthogonalEdgeStyle;rounded=0;orthogonalLoop=1;jettySize=auto;html=1;" parent="1" source="GX2V42UjHOd-Bbd-Waxc-29" edge="1">
          <mxGeometry relative="1" as="geometry">
            <mxPoint x="140" y="-260" as="targetPoint" />
          </mxGeometry>
        </mxCell>
        <mxCell id="GX2V42UjHOd-Bbd-Waxc-29" value="Row full?" style="rhombus;whiteSpace=wrap;html=1;" parent="1" vertex="1">
          <mxGeometry x="360" y="-300" width="80" height="80" as="geometry" />
        </mxCell>
        <mxCell id="GX2V42UjHOd-Bbd-Waxc-39" style="edgeStyle=orthogonalEdgeStyle;rounded=0;orthogonalLoop=1;jettySize=auto;html=1;entryX=1;entryY=0.5;entryDx=0;entryDy=0;" parent="1" source="GX2V42UjHOd-Bbd-Waxc-35" target="GX2V42UjHOd-Bbd-Waxc-29" edge="1">
          <mxGeometry relative="1" as="geometry">
            <mxPoint x="450" y="-260" as="targetPoint" />
          </mxGeometry>
        </mxCell>
        <mxCell id="GX2V42UjHOd-Bbd-Waxc-35" value="&lt;div&gt;Count Points&lt;/div&gt;" style="rounded=0;whiteSpace=wrap;html=1;" parent="1" vertex="1">
          <mxGeometry x="500" y="-290" width="120" height="60" as="geometry" />
        </mxCell>
        <mxCell id="GX2V42UjHOd-Bbd-Waxc-41" value="GameOver" style="ellipse;whiteSpace=wrap;html=1;aspect=fixed;" parent="1" vertex="1">
          <mxGeometry x="60" y="-300" width="80" height="80" as="geometry" />
        </mxCell>
        <mxCell id="DVfsnySLUGuYTtS7QK7m-1" value="Game Flow" style="text;html=1;whiteSpace=wrap;strokeColor=none;fillColor=none;align=center;verticalAlign=middle;rounded=0;" vertex="1" parent="1">
          <mxGeometry x="320" y="-700" width="100" height="30" as="geometry" />
        </mxCell>
      </root>
    </mxGraphModel>
  </diagram>
</mxfile>
